<svg width="35" height="35" viewBox="0 0 35 35" fill="none" xmlns="http://www.w3.org/2000/svg">
<path d="M8.29102 31.6663V21.0413H6.16602V13.2497C6.16602 12.4705 6.44345 11.8035 6.99831 11.2486C7.55317 10.6938 8.22018 10.4163 8.99935 10.4163H13.2493C14.0285 10.4163 14.6955 10.6938 15.2504 11.2486C15.8053 11.8035 16.0827 12.4705 16.0827 13.2497V21.0413H13.9577V31.6663H8.29102ZM11.1243 8.99967C10.3452 8.99967 9.67817 8.72224 9.12331 8.16738C8.56845 7.61252 8.29102 6.94551 8.29102 6.16634C8.29102 5.38717 8.56845 4.72016 9.12331 4.1653C9.67817 3.61044 10.3452 3.33301 11.1243 3.33301C11.9035 3.33301 12.5705 3.61044 13.1254 4.1653C13.6803 4.72016 13.9577 5.38717 13.9577 6.16634C13.9577 6.94551 13.6803 7.61252 13.1254 8.16738C12.5705 8.72224 11.9035 8.99967 11.1243 8.99967ZM21.7493 31.6663V23.1663H17.4993L21.1118 12.3288C21.3007 11.715 21.649 11.2427 22.1566 10.9122C22.6643 10.5816 23.2368 10.4163 23.8743 10.4163C24.5118 10.4163 25.0844 10.5816 25.5921 10.9122C26.0997 11.2427 26.448 11.715 26.6368 12.3288L30.2493 23.1663H25.9993V31.6663H21.7493ZM23.8743 8.99967C23.0952 8.99967 22.4282 8.72224 21.8733 8.16738C21.3184 7.61252 21.041 6.94551 21.041 6.16634C21.041 5.38717 21.3184 4.72016 21.8733 4.1653C22.4282 3.61044 23.0952 3.33301 23.8743 3.33301C24.6535 3.33301 25.3205 3.61044 25.8754 4.1653C26.4303 4.72016 26.7077 5.38717 26.7077 6.16634C26.7077 6.94551 26.4303 7.61252 25.8754 8.16738C25.3205 8.72224 24.6535 8.99967 23.8743 8.99967Z" fill="#212121"/>
</svg>
