<svg width="31" height="31" viewBox="0 0 31 31" fill="none" xmlns="http://www.w3.org/2000/svg">
<path d="M15.5 13C14.125 13 12.9479 12.5104 11.9688 11.5312C10.9896 10.5521 10.5 9.375 10.5 8C10.5 6.625 10.9896 5.44792 11.9688 4.46875C12.9479 3.48958 14.125 3 15.5 3C16.875 3 18.0521 3.48958 19.0312 4.46875C20.0104 5.44792 20.5 6.625 20.5 8C20.5 9.375 20.0104 10.5521 19.0312 11.5312C18.0521 12.5104 16.875 13 15.5 13ZM15.5 10.5C16.1875 10.5 16.776 10.2552 17.2656 9.76562C17.7552 9.27604 18 8.6875 18 8C18 7.3125 17.7552 6.72396 17.2656 6.23438C16.776 5.74479 16.1875 5.5 15.5 5.5C14.8125 5.5 14.224 5.74479 13.7344 6.23438C13.2448 6.72396 13 7.3125 13 8C13 8.6875 13.2448 9.27604 13.7344 9.76562C14.224 10.2552 14.8125 10.5 15.5 10.5ZM5.5 28V19.5312C5.5 18.8229 5.67708 18.1719 6.03125 17.5781C6.38542 16.9844 6.875 16.5208 7.5 16.1875C8.5625 15.6458 9.76562 15.1875 11.1094 14.8125C12.4531 14.4375 13.9167 14.25 15.5 14.25C17.0833 14.25 18.5469 14.4375 19.8906 14.8125C21.2344 15.1875 22.4375 15.6458 23.5 16.1875C24.125 16.5208 24.6146 16.9844 24.9688 17.5781C25.3229 18.1719 25.5 18.8229 25.5 19.5312V25.5C25.5 26.1875 25.2552 26.776 24.7656 27.2656C24.276 27.7552 23.6875 28 23 28H12.6875C11.7292 28 10.9167 27.6667 10.25 27C9.58333 26.3333 9.25 25.5208 9.25 24.5625C9.25 23.6042 9.58333 22.7917 10.25 22.125C10.9167 21.4583 11.7292 21.125 12.6875 21.125H16.2188L18.1562 17C17.7396 16.9167 17.3125 16.8542 16.875 16.8125C16.4375 16.7708 15.9792 16.75 15.5 16.75C14 16.75 12.6667 16.9323 11.5 17.2969C10.3333 17.6615 9.38542 18.0417 8.65625 18.4375C8.44792 18.5417 8.28646 18.6927 8.17188 18.8906C8.05729 19.0885 8 19.3021 8 19.5312V28H5.5ZM12.6875 25.5H14.1875L15.0625 23.625H12.6875C12.4375 23.625 12.2188 23.7188 12.0312 23.9062C11.8438 24.0938 11.75 24.3125 11.75 24.5625C11.75 24.8125 11.8438 25.0312 12.0312 25.2188C12.2188 25.4062 12.4375 25.5 12.6875 25.5ZM16.9375 25.5H23V19.5312C23 19.3021 22.9427 19.0885 22.8281 18.8906C22.7135 18.6927 22.5625 18.5417 22.375 18.4375C22.125 18.3125 21.8542 18.1823 21.5625 18.0469C21.2708 17.9115 20.9583 17.7812 20.625 17.6562L16.9375 25.5Z" fill="#212121"/>
</svg>
