<svg width="35" height="35" viewBox="0 0 35 35" fill="none" xmlns="http://www.w3.org/2000/svg">
<g clip-path="url(#clip0_2112_1795)">
<path d="M0.5 26V23.7687C0.5 22.7535 1.01944 21.9271 2.05833 21.2896C3.09722 20.6521 4.46667 20.3333 6.16667 20.3333C6.47361 20.3333 6.76875 20.3392 7.05208 20.351C7.33542 20.3628 7.60694 20.3924 7.86667 20.4396C7.53611 20.9354 7.28819 21.4549 7.12292 21.9979C6.95764 22.541 6.875 23.1076 6.875 23.6979V26H0.5ZM9 26V23.6979C9 22.9424 9.2066 22.2517 9.61979 21.626C10.033 21.0003 10.6174 20.4514 11.3729 19.9792C12.1285 19.5069 13.0316 19.1528 14.0823 18.9167C15.133 18.6806 16.2722 18.5625 17.5 18.5625C18.7514 18.5625 19.9024 18.6806 20.9531 18.9167C22.0038 19.1528 22.9069 19.5069 23.6625 19.9792C24.4181 20.4514 24.9965 21.0003 25.3979 21.626C25.7993 22.2517 26 22.9424 26 23.6979V26H9ZM28.125 26V23.6979C28.125 23.084 28.0483 22.5056 27.8948 21.9625C27.7413 21.4194 27.5111 20.9118 27.2042 20.4396C27.4639 20.3924 27.7295 20.3628 28.001 20.351C28.2726 20.3392 28.55 20.3333 28.8333 20.3333C30.5333 20.3333 31.9028 20.6462 32.9417 21.2719C33.9806 21.8976 34.5 22.7299 34.5 23.7687V26H28.125ZM12.0104 23.1667H23.025C22.7889 22.6944 22.1337 22.2812 21.0594 21.9271C19.9851 21.5729 18.7986 21.3958 17.5 21.3958C16.2014 21.3958 15.0149 21.5729 13.9406 21.9271C12.8663 22.2812 12.2229 22.6944 12.0104 23.1667ZM6.16667 18.9167C5.3875 18.9167 4.72049 18.6392 4.16563 18.0844C3.61076 17.5295 3.33333 16.8625 3.33333 16.0833C3.33333 15.2806 3.61076 14.6076 4.16563 14.0646C4.72049 13.5215 5.3875 13.25 6.16667 13.25C6.96944 13.25 7.64236 13.5215 8.18542 14.0646C8.72847 14.6076 9 15.2806 9 16.0833C9 16.8625 8.72847 17.5295 8.18542 18.0844C7.64236 18.6392 6.96944 18.9167 6.16667 18.9167ZM28.8333 18.9167C28.0542 18.9167 27.3872 18.6392 26.8323 18.0844C26.2774 17.5295 26 16.8625 26 16.0833C26 15.2806 26.2774 14.6076 26.8323 14.0646C27.3872 13.5215 28.0542 13.25 28.8333 13.25C29.6361 13.25 30.309 13.5215 30.8521 14.0646C31.3951 14.6076 31.6667 15.2806 31.6667 16.0833C31.6667 16.8625 31.3951 17.5295 30.8521 18.0844C30.309 18.6392 29.6361 18.9167 28.8333 18.9167ZM17.5 17.5C16.3194 17.5 15.316 17.0868 14.4896 16.2604C13.6632 15.434 13.25 14.4306 13.25 13.25C13.25 12.0458 13.6632 11.0365 14.4896 10.2219C15.316 9.40729 16.3194 9 17.5 9C18.7042 9 19.7135 9.40729 20.5281 10.2219C21.3427 11.0365 21.75 12.0458 21.75 13.25C21.75 14.4306 21.3427 15.434 20.5281 16.2604C19.7135 17.0868 18.7042 17.5 17.5 17.5ZM17.5 14.6667C17.9014 14.6667 18.2378 14.5309 18.5094 14.2594C18.7809 13.9878 18.9167 13.6514 18.9167 13.25C18.9167 12.8486 18.7809 12.5122 18.5094 12.2406C18.2378 11.9691 17.9014 11.8333 17.5 11.8333C17.0986 11.8333 16.7622 11.9691 16.4906 12.2406C16.2191 12.5122 16.0833 12.8486 16.0833 13.25C16.0833 13.6514 16.2191 13.9878 16.4906 14.2594C16.7622 14.5309 17.0986 14.6667 17.5 14.6667Z" fill="#212121"/>
</g>
<defs>
<clipPath id="clip0_2112_1795">
<rect width="34" height="34" fill="white" transform="translate(0.5 0.5)"/>
</clipPath>
</defs>
</svg>
