<svg width="35" height="35" viewBox="0 0 35 35" fill="none" xmlns="http://www.w3.org/2000/svg">
<path d="M8.99983 16.0125L7.58316 16.7917C7.2526 16.9806 6.89844 17.0278 6.52066 16.9333C6.14288 16.8389 5.85955 16.6264 5.67066 16.2958L2.83733 11.3375C2.64844 11.0069 2.60122 10.6528 2.69566 10.275C2.7901 9.89722 3.0026 9.61389 3.33316 9.425L11.479 4.75H13.9582C14.1707 4.75 14.3418 4.81493 14.4717 4.94479C14.6016 5.07465 14.6665 5.24583 14.6665 5.45833V6.16667C14.6665 6.94583 14.9439 7.61285 15.4988 8.16771C16.0536 8.72257 16.7207 9 17.4998 9C18.279 9 18.946 8.72257 19.5009 8.16771C20.0557 7.61285 20.3332 6.94583 20.3332 6.16667V5.45833C20.3332 5.24583 20.3981 5.07465 20.528 4.94479C20.6578 4.81493 20.829 4.75 21.0415 4.75H23.5207L31.6665 9.425C31.997 9.61389 32.2095 9.89722 32.304 10.275C32.3984 10.6528 32.3512 11.0069 32.1623 11.3375L29.329 16.2958C29.1401 16.6264 28.8627 16.833 28.4967 16.9156C28.1307 16.9983 27.7707 16.9451 27.4165 16.7562L25.9998 16.0479V28.8333C25.9998 29.2347 25.8641 29.5712 25.5925 29.8427C25.321 30.1142 24.9845 30.25 24.5832 30.25H10.4165C10.0151 30.25 9.67865 30.1142 9.40712 29.8427C9.13559 29.5712 8.99983 29.2347 8.99983 28.8333V16.0125ZM11.8332 11.2667V27.4167H23.1665V11.2667L27.5582 13.675L29.0457 11.1958L22.954 7.65417C22.5998 8.85833 21.9328 9.8559 20.953 10.6469C19.9731 11.4378 18.822 11.8333 17.4998 11.8333C16.1776 11.8333 15.0266 11.4378 14.0467 10.6469C13.0668 9.8559 12.3998 8.85833 12.0457 7.65417L5.95399 11.1958L7.44149 13.675L11.8332 11.2667Z" fill="#212121"/>
</svg>
