<svg width="35" height="35" viewBox="0 0 35 35" fill="none" xmlns="http://www.w3.org/2000/svg">
<path d="M6.16732 30.2497C5.38815 30.2497 4.72114 29.9722 4.16628 29.4174C3.61141 28.8625 3.33398 28.1955 3.33398 27.4163V11.833C3.33398 11.0538 3.61141 10.3868 4.16628 9.83197C4.72114 9.2771 5.38815 8.99967 6.16732 8.99967H11.834V6.16634C11.834 5.38717 12.1114 4.72016 12.6663 4.1653C13.2211 3.61044 13.8882 3.33301 14.6673 3.33301H20.334C21.1132 3.33301 21.7802 3.61044 22.335 4.1653C22.8899 4.72016 23.1673 5.38717 23.1673 6.16634V8.99967H28.834C29.6132 8.99967 30.2802 9.2771 30.835 9.83197C31.3899 10.3868 31.6673 11.0538 31.6673 11.833V17.8893C31.2423 17.5823 30.7937 17.3167 30.3215 17.0924C29.8493 16.8681 29.3534 16.6733 28.834 16.508V11.833H6.16732V27.4163H16.1902C16.2611 27.9122 16.3673 28.3962 16.509 28.8684C16.6507 29.3406 16.8277 29.8011 17.0402 30.2497H6.16732ZM14.6673 8.99967H20.334V6.16634H14.6673V8.99967ZM26.0007 33.083C24.0409 33.083 22.3704 32.3924 20.9892 31.0111C19.6079 29.6299 18.9173 27.9594 18.9173 25.9997C18.9173 24.04 19.6079 22.3695 20.9892 20.9882C22.3704 19.607 24.0409 18.9163 26.0007 18.9163C27.9604 18.9163 29.6309 19.607 31.0121 20.9882C32.3934 22.3695 33.084 24.04 33.084 25.9997C33.084 27.9594 32.3934 29.6299 31.0121 31.0111C29.6309 32.3924 27.9604 33.083 26.0007 33.083ZM26.709 25.7163V21.7497H25.2923V26.283L28.3382 29.3288L29.3298 28.3372L26.709 25.7163Z" fill="#212121"/>
</svg>
