<svg width="35" height="35" viewBox="0 0 35 35" fill="none" xmlns="http://www.w3.org/2000/svg">
<path d="M12.4 30.25C10.2514 30.25 8.43924 29.5122 6.96354 28.0365C5.48785 26.5608 4.75 24.7486 4.75 22.6C4.75 21.7028 4.90347 20.8292 5.21042 19.9792C5.51736 19.1292 5.95417 18.3618 6.52083 17.6771L11.55 11.6208L8.11458 4.75H26.8854L23.45 11.6208L28.4792 17.6771C29.0458 18.3618 29.4826 19.1292 29.7896 19.9792C30.0965 20.8292 30.25 21.7028 30.25 22.6C30.25 24.7486 29.5062 26.5608 28.0187 28.0365C26.5312 29.5122 24.725 30.25 22.6 30.25H12.4ZM17.5 23.1667C16.7208 23.1667 16.0538 22.8892 15.499 22.3344C14.9441 21.7795 14.6667 21.1125 14.6667 20.3333C14.6667 19.5542 14.9441 18.8872 15.499 18.3323C16.0538 17.7774 16.7208 17.5 17.5 17.5C18.2792 17.5 18.9462 17.7774 19.501 18.3323C20.0559 18.8872 20.3333 19.5542 20.3333 20.3333C20.3333 21.1125 20.0559 21.7795 19.501 22.3344C18.9462 22.8892 18.2792 23.1667 17.5 23.1667ZM14.1354 10.4167H20.8646L22.2812 7.58333H12.7187L14.1354 10.4167ZM12.4 27.4167H22.6C23.9458 27.4167 25.0851 26.9503 26.0177 26.0177C26.9503 25.0851 27.4167 23.9458 27.4167 22.6C27.4167 22.0333 27.3163 21.4844 27.1156 20.9531C26.9149 20.4219 26.6375 19.9437 26.2833 19.5187L21.0771 13.25H13.9583L8.71667 19.4833C8.3625 19.9083 8.08507 20.3924 7.88437 20.9354C7.68368 21.4785 7.58333 22.0333 7.58333 22.6C7.58333 23.9458 8.04965 25.0851 8.98229 26.0177C9.91493 26.9503 11.0542 27.4167 12.4 27.4167Z" fill="#212121"/>
</svg>
