<svg width="35" height="35" viewBox="0 0 35 35" fill="none" xmlns="http://www.w3.org/2000/svg">
<path d="M22.1757 24.158L24.159 22.1747L18.9173 16.933V10.4163H16.084V18.0663L22.1757 24.158ZM17.5007 31.6663C15.5409 31.6663 13.6993 31.2945 11.9757 30.5507C10.252 29.807 8.75273 28.7976 7.47773 27.5226C6.20273 26.2476 5.19336 24.7483 4.44961 23.0247C3.70586 21.3011 3.33398 19.4594 3.33398 17.4997C3.33398 15.54 3.70586 13.6983 4.44961 11.9747C5.19336 10.2511 6.20273 8.75176 7.47773 7.47676C8.75273 6.20176 10.252 5.19238 11.9757 4.44863C13.6993 3.70488 15.5409 3.33301 17.5007 3.33301C19.4604 3.33301 21.302 3.70488 23.0257 4.44863C24.7493 5.19238 26.2486 6.20176 27.5236 7.47676C28.7986 8.75176 29.8079 10.2511 30.5517 11.9747C31.2954 13.6983 31.6673 15.54 31.6673 17.4997C31.6673 19.4594 31.2954 21.3011 30.5517 23.0247C29.8079 24.7483 28.7986 26.2476 27.5236 27.5226C26.2486 28.7976 24.7493 29.807 23.0257 30.5507C21.302 31.2945 19.4604 31.6663 17.5007 31.6663ZM17.5007 28.833C20.6409 28.833 23.3149 27.7292 25.5225 25.5215C27.7302 23.3139 28.834 20.64 28.834 17.4997C28.834 14.3594 27.7302 11.6854 25.5225 9.4778C23.3149 7.27016 20.6409 6.16634 17.5007 6.16634C14.3604 6.16634 11.6864 7.27016 9.47878 9.4778C7.27114 11.6854 6.16732 14.3594 6.16732 17.4997C6.16732 20.64 7.27114 23.3139 9.47878 25.5215C11.6864 27.7292 14.3604 28.833 17.5007 28.833Z" fill="#212121"/>
</svg>
